<svg class="h-20 w-20 text-primary"  stroke="#30e86e" stroke-width="1.5" viewBox="0 0 24 24" xmlns="http://www.w3.org/2000/svg">
<path d="M2.25 18.75a60.07 60.07 0 0 1 15.797 2.101c.727.198 1.453-.342 1.453-1.096V18.75M3.75 4.5v.75A.75.75 0 0 1 3 6h-.75m0 0v-.375c0-.621.504-1.125 1.125-1.125H20.25M2.25 6v9m18-10.5v.75c0 .414-.336.75-.75.75h-.75a.75.75 0 0 1-.75-.75v-.75m0 0H5.625m13.5 0v3.75c0 .621-.504 1.125-1.125 1.125h-1.5a1.125 1.125 0 0 1-1.125-1.125v-3.75m0 0h-3.75V5.25c0-.621.504-1.125 1.125-1.125h1.5c.621 0 1.125.504 1.125 1.125v.75" stroke-linecap="round" stroke-linejoin="round"></path>
</svg>